<?xml version="1.0" standalone="no"?>
<!DOCTYPE svg PUBLIC "-//W3C//DTD SVG 20010904//EN"
 "http://www.w3.org/TR/2001/REC-SVG-20010904/DTD/svg10.dtd">
<svg version="1.0" xmlns="http://www.w3.org/2000/svg"
 width="58.000000pt" height="56.000000pt" viewBox="0 0 58.000000 56.000000"
 preserveAspectRatio="xMidYMid meet">
<metadata>
Created by potrace 1.13, written by Peter Selinger 2001-2015
</metadata>
<g transform="translate(0.000000,56.000000) scale(0.100000,-0.100000)"
fill="#000000" stroke="none">
<path d="M275 365 c-5 -2 -36 -11 -67 -20 -50 -14 -58 -20 -68 -50 -6 -19 -18
-39 -26 -43 -12 -7 -13 -16 -6 -43 6 -19 11 -28 11 -21 2 19 28 14 73 -14 38
-24 43 -25 53 -10 16 21 45 10 46 -18 0 -14 2 -16 6 -6 13 36 57 90 74 90 41
0 16 19 -28 23 l-48 3 51 2 c39 2 55 7 70 25 10 12 12 16 4 10 -24 -22 -45
-15 -64 21 -10 19 -26 37 -35 40 -9 3 -20 8 -26 10 -5 2 -14 3 -20 1z"/>
</g>
</svg>
